<svg viewBox="0 0 882 446" fill="none" xmlns="http://www.w3.org/2000/svg">
        <g clip-path="url(#clip0_176_770)">
        <path d="M872.584 247.588C817.653 176.772 751.509 113.579 673.316 69.7615C595.123 25.9441 504.39 2.19123 415.182 10.9941C334.924 18.9117 258.944 52.5001 191.472 96.6126C124.049 140.774 64.1507 195.362 9.41577 250.883C38.4307 250.441 66.2653 262.932 90.1165 279.456C113.968 295.979 134.721 316.487 157.244 334.781C239.765 402.056 346.53 438.89 452.95 436.775C559.371 434.661 664.611 393.647 744.378 323.175C763.508 306.258 781.31 287.668 802.359 273.21C823.407 258.752 848.635 248.474 872.584 247.687V247.588Z" stroke="white" stroke-width="17.2122" stroke-linecap="round" stroke-linejoin="round"/>
        <path d="M90.1165 279.457C66.2653 262.933 38.3815 250.442 9.41577 250.884C39.365 220.542 70.7897 190.445 104.181 162.217C87.4118 198.805 82.7399 241 91.2968 280.342" fill="white"/>
        <path d="M90.1165 279.457C66.2653 262.933 38.3815 250.442 9.41577 250.884C39.365 220.542 70.7897 190.445 104.181 162.217C87.4118 198.805 82.7399 241 91.2968 280.342" stroke="white" stroke-width="7.37667" stroke-linecap="round" stroke-linejoin="round"/>
        </g>
        <defs>
        <clipPath id="clip0_176_770">
        <rect width="880.381" height="444.862" fill="white" transform="translate(0.80957 0.568359)"/>
        </clipPath>
        </defs>
        </svg>