<svg width="856" height="451" viewBox="0 0 856 451" fill="none" xmlns="http://www.w3.org/2000/svg">
<path d="M699.531 205.053C548.271 81.2561 329.454 44.949 159.119 151.838C135.703 166.458 113.692 183.315 93.6404 202.226C92.1875 203.598 92.1217 205.886 93.4911 207.339C94.8402 208.769 97.0879 208.85 98.5408 207.544C118.686 189.423 140.444 173.12 163.632 159.188C305.793 72.187 485.703 83.3519 627.279 165.762C650.885 179.119 673.458 194.296 695.081 210.753C696.671 211.963 698.939 211.654 700.149 210.065C701.341 208.5 701.055 206.276 699.531 205.053Z" fill="white"/>
<path d="M742.857 298.832C742.857 298.832 757.752 323.181 817.809 323.181C817.809 323.181 776.014 320.323 757.562 296.993C795.752 303.39 827.399 296.371 850.944 272.725C850.944 272.725 811.784 298.517 760.576 286.656C760.576 286.656 806.514 283.831 833.623 243.73C833.623 243.73 793.271 283.358 740.241 267.452C740.241 267.452 788.062 258.416 810.089 221.327C810.089 221.327 769.61 268.394 720.85 251.26C749.758 239.979 772.551 219.163 787.872 186.685C787.872 186.685 759.192 227.915 695.181 233.438C681.017 232.221 675.772 229.604 680.622 225.404C714.998 213.452 740.484 190.553 757.435 157.134C757.435 157.134 712.892 217.667 656.523 209.339C691.45 195.509 716.086 172.523 727.813 138.049C727.813 138.049 696.183 188.756 648.365 200.052C628.419 199.726 614.984 198.311 625.397 192.899C659.428 176.573 682.563 151.482 692.42 115.709C692.42 115.709 662.486 172.376 616.735 186.121C600.409 186.533 590.492 185.106 598.285 178.59C625.452 154.686 646.395 125.403 655.143 85.5852C655.143 85.5852 633.304 160.893 569.104 167.107C590.892 134.72 606.681 99.7395 606.193 57.7221C606.193 57.7221 596.779 143.777 539.734 157.136C531.933 158.703 529.385 157.362 533.333 152.423C552.367 126.704 563.72 93.3534 557.807 42.8515C557.807 42.8515 545.759 133.222 513.939 141.127C495.393 145.976 485.656 144.286 488.334 137.36C503.389 107.077 513.942 72.4788 513.375 27.2241C513.375 27.2241 491.318 119.804 469.697 128.701C448.423 137.456 445.818 124.183 445.818 124.183C445.734 100.613 453.224 61.8606 462.731 19.0661C462.731 19.0661 436.875 69.5225 429.846 121.234C429.846 121.234 421.438 135.039 408.385 129.268C400.69 96.649 400.548 58.6916 415.54 10.0324C415.54 10.0324 386.422 51.703 390.439 126.509C390.439 126.509 380.828 135.718 367.471 118.351C354.114 100.985 358.434 32.1877 370.483 10.0349C351.77 36.0756 348.71 78.8017 352.033 128.332C331.278 119.305 317.321 85.8485 316.073 6.70898C316.073 6.70898 305.341 69.7781 316.073 126.448C316.073 126.448 315.007 135.047 300.823 133.29C286.64 131.534 267.186 64.2576 272.456 19.0737C272.456 19.0737 258.648 72.7927 274.967 136.302C274.967 136.302 274.466 144.523 260.909 142.453C247.354 140.382 222.501 71.2867 226.267 26.8571C226.267 26.8571 218.737 91.1665 242.332 149.004C242.332 149.004 240.953 162.426 219.489 157.146C198.027 151.866 181.458 72.4181 185.601 41.9175C185.601 41.9175 170.915 103.481 198.027 159.019C198.027 159.019 202.922 167.555 192.881 173.202C182.84 178.849 144.558 126.259 144.558 85.5928C144.558 85.5928 137.874 142.544 175.246 179.917C175.246 179.917 177.317 191.651 155.227 193.535C133.138 195.418 110.795 142.073 107.783 105.425C107.783 105.425 94.7298 149.857 131.128 205.082C131.128 205.082 131.379 214.369 120.836 214.369C110.294 214.369 76.6573 158.954 67.9323 126.636C67.9323 126.636 66.8034 174.457 107.656 222.84C107.656 222.84 103.009 233.15 84.3115 222.089C55.9295 205.297 41.5044 175.839 36.6851 164.168C35.3992 161.052 34.7968 159.207 34.7968 159.207C34.7968 159.207 40.4439 217.381 84.876 236.962C84.876 236.962 94.2894 242.672 88.2019 248.759C83.0535 253.908 72.8884 252.845 70.5774 252.592C51.0191 250.448 16.2358 216.664 13.897 214.369C17.3318 222.357 23.2193 232.112 31.4228 242.647C42.7447 257.186 59.1821 272.527 79.6491 275.734L101.611 279.466C202.961 199.901 294.477 156.219 346.284 152.907C472.247 143.159 617.534 189.38 742.857 298.832Z" fill="white"/>
<path d="M185.847 223.068L76.231 299.327L185.847 372.176C319.015 469.454 499.802 469.454 632.97 372.176L743.162 298.684L632.97 223.068C499.802 125.79 319.015 125.79 185.847 223.068Z" stroke="white" stroke-width="10"/>
</svg>
