     <svg viewBox="0 0 882 446" fill="none" xmlns="http://www.w3.org/2000/svg">
        <g clip-path="url(#clip0_176_770)">
        <g clip-path="url(#clip1_176_770)">
        <path d="M872.584 247.588C817.653 176.772 751.509 113.579 673.316 69.7615C595.123 25.9441 504.39 2.19123 415.182 10.9941C334.924 18.9117 258.944 52.5001 191.472 96.6126C124.049 140.774 64.1507 195.362 9.41577 250.883C38.4307 250.441 66.2653 262.932 90.1165 279.456C113.968 295.979 134.721 316.487 157.244 334.781C239.765 402.056 346.53 438.89 452.95 436.775C559.371 434.661 664.611 393.647 744.378 323.175C763.508 306.258 781.31 287.668 802.359 273.21C823.407 258.752 848.635 248.474 872.584 247.687V247.588Z" fill="#711E40" stroke="white" stroke-width="17.2122" stroke-linecap="round" stroke-linejoin="round"/>
        <path d="M728.031 335.76L695.591 264.168M695.591 264.168L703.422 188.102M695.591 264.168L660.914 257.456" stroke="white" stroke-width="17" stroke-linecap="round" stroke-linejoin="round"/>
        <path d="M606.5 403.599C610.304 358.793 603.677 343.548 571.538 304.817" stroke="white" stroke-width="17" stroke-linecap="round" stroke-linejoin="round"/>
        <path d="M300.998 408.816V370.313C300.998 365.906 303.073 361.757 306.598 359.113L342.71 332.029" stroke="white" stroke-width="17" stroke-linecap="round" stroke-linejoin="round"/>
        <path d="M478.741 435.319L494.872 406.139C497.468 401.443 497.151 395.676 494.057 391.292L477.099 367.268M484.438 305.984L463.213 327.74C458.5 332.571 457.905 340.076 461.797 345.59L477.099 367.268M477.099 367.268L413.955 354.216" stroke="white" stroke-width="17" stroke-linecap="round" stroke-linejoin="round"/>
        <path d="M230.041 382.814L206.787 343.648C203.967 338.9 204.202 332.938 207.387 328.427L224.17 304.651M216.831 243.367L238.055 265.123C242.768 269.954 243.364 277.459 239.472 282.973L224.17 304.651M224.17 304.651L287.313 291.599" stroke="white" stroke-width="17" stroke-linecap="round" stroke-linejoin="round"/>
        </g>
        <path d="M872.584 247.588C817.653 176.772 751.509 113.579 673.316 69.7615C595.123 25.9441 504.39 2.19123 415.182 10.9941C334.924 18.9117 258.944 52.5001 191.472 96.6126C124.049 140.774 64.1507 195.362 9.41577 250.883C38.4307 250.441 66.2653 262.932 90.1165 279.456C113.968 295.979 134.721 316.487 157.244 334.781C239.765 402.056 346.53 438.89 452.95 436.775C559.371 434.661 664.611 393.647 744.378 323.175C763.508 306.258 781.31 287.668 802.359 273.21C823.407 258.752 848.635 248.474 872.584 247.687V247.588Z" stroke="white" stroke-width="17.2122" stroke-linecap="round" stroke-linejoin="round"/>
        </g>
        <defs>
        <clipPath id="clip0_176_770">
        <rect width="880.381" height="444.862" fill="white" transform="translate(0.80957 0.568359)"/>
        </clipPath>
        <clipPath id="clip1_176_770">
        <rect width="861" height="462" fill="white" transform="translate(-12 -8)"/>
        </clipPath>
        </defs>
        </svg>