<svg width="856" height="446" viewBox="0 0 856 446" fill="none" xmlns="http://www.w3.org/2000/svg">
<path fill-rule="evenodd" clip-rule="evenodd" d="M409.494 408C475.492 408 528.994 354.498 528.994 288.5C528.994 222.502 475.492 169 409.494 169C343.496 169 289.994 222.502 289.994 288.5C289.994 354.498 343.496 408 409.494 408ZM409.494 348.105C376.575 348.105 349.889 321.419 349.889 288.5C349.889 255.581 376.575 228.895 409.494 228.895C421.273 228.895 432.254 232.312 441.5 238.209C446.08 224.98 461 223.5 468 230.5C475 237.5 476.991 252.481 461 258.485C466.148 267.3 469.098 277.555 469.098 288.5C469.098 321.419 442.412 348.105 409.494 348.105ZM331.5 250.5C331.823 250.712 331.843 251.416 331.5 253L330 258L328 266.5L326.5 276.5L326 287L327 299L329 309L333 320C334.989 324.579 336.111 327.149 339 331.5C341.582 335.637 343.174 338.118 346 341.5L354.5 351C351.329 349.135 349.583 348.085 347 346C344.999 344.788 343.897 344.022 342 342C340.636 340.802 339.935 340.046 338.866 338.894L338.864 338.891C338.747 338.766 338.627 338.636 338.5 338.5C336.775 336.67 335.685 335.281 334.025 333.168L333.787 332.865C333.694 332.745 333.598 332.624 333.5 332.5C331.282 329.762 330.235 328.107 328.5 325L325 318C323.785 315.406 323.121 313.944 322.5 311C321.768 309.321 321.471 308.162 321 306C320.158 303.198 319.874 301.534 319.5 298.5C319.077 296.044 318.991 294.482 319 291.5C318.803 289.303 318.812 287.983 319 285.5C319.044 281.635 319.093 279.486 320 275.5L321.5 268.5L324 261.5L326.5 256.5L326.519 256.461C327.178 255.065 327.689 253.983 329 252.5C330.17 251.033 330.753 250.454 331.5 250.5ZM495.022 277.98C495.039 275.544 495.051 273.682 495.5 274C496.011 273.443 496.654 274.756 497.614 276.714C497.737 276.966 497.866 277.229 498 277.5C499.072 281.269 499.653 283.405 500 287.5C500.561 291.543 500.54 293.745 500.507 297.342C500.505 297.557 500.502 297.775 500.5 298C500.059 302.975 499.587 305.284 498.5 309C496.974 314.829 495.922 317.294 494 321.5C491.417 326.316 489.74 328.818 486.5 333C482.671 337.674 480.292 340.045 475.5 343.5C469.838 347.906 466.178 349.356 459.819 351.874L459.5 352C465.719 346.916 468.987 343.947 474.5 338.5L478.5 333.5L483 327L487.5 318.5L491.5 308L493.5 298L494.5 288.5L495 280C495.013 279.306 495.018 278.623 495.022 277.98Z" fill="white"/>
<path d="M457.161 261.179C446.869 261.179 438.512 252.822 438.512 242.53C438.512 232.238 446.869 223.881 457.161 223.881C467.453 223.881 475.811 232.238 475.811 242.53C475.811 252.822 467.453 261.179 457.161 261.179Z" stroke="white" stroke-width="5.02302"/>
</svg>
