<svg width="605" height="155" viewBox="0 0 605 155" fill="none" xmlns="http://www.w3.org/2000/svg">
<path d="M4.83789 81.8634C4.83789 111.016 14.6521 131.506 44.0948 131.506C73.5376 131.506 83.3518 111.016 83.3518 81.8634C83.3518 52.5728 73.3993 32.2207 44.0948 32.2207C14.7904 32.2207 4.83789 52.5728 4.83789 81.8634ZM64.5527 81.8634C64.5527 96.7149 61.9263 115.279 44.0948 115.279C26.2633 115.279 23.637 96.7149 23.637 81.8634C23.637 66.8743 25.9869 48.3099 44.0948 48.3099C62.0646 48.3099 64.5527 66.8743 64.5527 81.8634ZM115.517 39.6465C115.517 34.5584 110.817 33.1833 106.256 33.1833C101.694 33.1833 97.1326 34.5584 97.1326 39.6465V124.768C97.1326 129.856 101.694 131.231 106.256 131.231C110.817 131.231 115.517 129.856 115.517 124.768V85.8513C124.778 85.1637 131.69 87.5015 135.007 96.7149C138.325 106.066 139.983 116.242 144.407 125.455C146.204 129.168 148.277 130.956 154.359 130.956C161.685 130.956 165.694 129.031 162.515 122.705C159.197 115.967 156.156 102.078 151.595 91.6269C148.83 85.4388 144.269 78.563 137.357 76.5003C142.61 74.0251 145.927 68.7995 148.83 63.9865C154.221 54.7731 157.815 45.9721 161.132 41.1591C164.726 35.7961 161.271 33.1833 154.083 33.1833C146.895 33.1833 145.236 35.1085 141.78 40.1965C138.878 44.7345 134.731 55.0481 131.275 61.0987C127.819 67.1494 122.428 70.1747 115.517 70.1747V39.6465ZM236.109 39.6465C238.044 34.4209 232.929 33.3208 228.921 33.1833C221.595 33.1833 219.659 34.696 217.724 39.6465L204.04 74.8502L187.176 39.6465C184.964 34.696 182.891 32.9083 175.15 33.1833C170.312 33.4583 166.165 35.7961 168.653 40.7466L195.884 96.3024L190.493 109.916C188.834 114.317 187.729 114.867 185.102 115.279C181.646 115.829 179.711 117.617 179.849 122.293C179.988 129.581 184.273 130.956 189.664 130.956C198.649 130.956 203.901 122.98 206.804 115.279L236.109 39.6465ZM276.137 101.665C280.422 101.665 281.527 97.8151 281.527 94.1022C281.527 90.2518 280.283 86.4014 276.137 86.4014H248.076C243.929 86.4014 242.823 90.2518 242.823 94.1022C242.823 97.8151 243.929 101.665 248.076 101.665H276.137ZM291.15 81.8634C291.15 111.016 300.964 131.506 330.406 131.506C359.849 131.506 369.663 111.016 369.663 81.8634C369.663 52.5728 359.711 32.2207 330.406 32.2207C301.102 32.2207 291.15 52.5728 291.15 81.8634ZM350.864 81.8634C350.864 96.7149 348.238 115.279 330.406 115.279C312.575 115.279 309.949 96.7149 309.949 81.8634C309.949 66.8743 312.298 48.3099 330.406 48.3099C348.376 48.3099 350.864 66.8743 350.864 81.8634ZM401.829 39.6465C401.829 34.5584 397.129 33.1833 392.567 33.1833C388.006 33.1833 383.444 34.5584 383.444 39.6465V124.768C383.444 129.856 388.006 131.231 392.567 131.231C397.129 131.231 401.829 129.856 401.829 124.768V85.8513C411.09 85.1637 418.001 87.5015 421.319 96.7149C424.636 106.066 426.295 116.242 430.718 125.455C432.515 129.168 434.589 130.956 440.671 130.956C447.997 130.956 452.006 129.031 448.826 122.705C445.509 115.967 442.468 102.078 437.906 91.6269C435.142 85.4388 430.58 78.563 423.669 76.5003C428.921 74.0251 432.239 68.7995 435.142 63.9865C440.533 54.7731 444.127 45.9721 447.444 41.1591C451.038 35.7961 447.582 33.1833 440.394 33.1833C433.207 33.1833 431.548 35.1085 428.092 40.1965C425.189 44.7345 421.042 55.0481 417.587 61.0987C414.131 67.1494 408.74 70.1747 401.829 70.1747V39.6465ZM522.42 39.6465C524.355 34.4209 519.241 33.3208 515.232 33.1833C507.906 33.1833 505.971 34.696 504.036 39.6465L490.351 74.8502L473.487 39.6465C471.276 34.696 469.202 32.9083 461.461 33.1833C456.623 33.4583 452.476 35.7961 454.965 40.7466L482.196 96.3024L476.805 109.916C475.146 114.317 474.04 114.867 471.414 115.279C467.958 115.829 466.023 117.617 466.161 122.293C466.299 129.581 470.584 130.956 475.975 130.956C484.96 130.956 490.213 122.98 493.116 115.279L522.42 39.6465Z" fill="white"/>
<path d="M577.153 9.26562C563.745 9.26562 552.825 20.4043 552.825 34.1557C552.825 47.9072 563.745 59.1146 577.153 59.1146C590.63 59.1146 601.481 47.9072 601.481 34.1557C601.481 20.4043 590.63 9.26562 577.153 9.26562ZM577.153 15.66C587.175 15.66 595.261 23.9109 595.261 34.1557C595.261 44.4005 587.175 52.7202 577.153 52.7202C567.131 52.7202 559.045 44.4005 559.045 34.1557C559.045 23.9109 567.131 15.66 577.153 15.66ZM571.071 48.1134C572.937 48.1134 574.388 47.4946 574.388 45.6382V37.4561H576.185C578.535 37.4561 579.295 39.2438 579.848 41.6503C580.263 43.3004 580.747 44.8818 581.438 46.0507C582.544 47.9072 584.203 47.8384 586.138 47.7009C587.589 47.5634 590.008 46.6008 588.764 44.6068C586.76 41.5127 586.76 37.5248 583.788 35.3934C586.414 34.4995 588.349 31.9555 588.349 28.7927C588.349 23.0858 584.134 19.7855 578.674 19.7855H572.937C569.758 19.7855 567.615 21.4356 567.615 24.6672V45.5694C567.615 47.7009 569.274 48.1822 571.071 48.1134ZM574.388 31.5429V26.7987C574.388 26.1799 574.596 25.9736 575.149 25.9736H578.19C580.125 25.9736 581.3 26.7299 581.3 28.7239C581.3 30.7179 579.918 31.5429 578.051 31.5429H574.388Z" fill="white"/>
</svg>
