<svg width="856" height="451" fill="none" xmlns="http://www.w3.org/2000/svg"><path d="M699.531 205.053C548.271 81.256 329.454 44.949 159.119 151.838c-23.416 14.62-45.427 31.477-65.479 50.388a3.618 3.618 0 0 0-.149 5.113 3.623 3.623 0 0 0 5.05.205c20.145-18.121 41.903-34.424 65.091-48.356 142.161-87.001 322.071-75.836 463.647 6.574 23.606 13.357 46.179 28.534 67.802 44.991a3.616 3.616 0 0 0 4.45-5.7Z" fill="#fff"/><path d="M742.857 298.832s14.895 24.349 74.952 24.349c0 0-41.795-2.858-60.247-26.188 38.19 6.397 69.837-.622 93.382-24.268 0 0-39.16 25.792-90.368 13.931 0 0 45.938-2.825 73.047-42.926 0 0-40.352 39.628-93.382 23.722 0 0 47.821-9.036 69.848-46.125 0 0-40.479 47.067-89.239 29.933 28.908-11.281 51.701-32.097 67.022-64.575 0 0-28.68 41.23-92.691 46.753-14.164-1.217-19.409-3.834-14.559-8.034 34.376-11.952 59.862-34.851 76.813-68.27 0 0-44.543 60.533-100.912 52.205 34.927-13.83 59.563-36.816 71.29-71.29 0 0-31.63 50.707-79.448 62.003-19.946-.326-33.381-1.741-22.968-7.153 34.031-16.326 57.166-41.417 67.023-77.19 0 0-29.934 56.667-75.685 70.412-16.326.412-26.243-1.015-18.45-7.531 27.167-23.904 48.11-53.187 56.858-93.005 0 0-21.839 75.308-86.039 81.522 21.788-32.387 37.577-67.367 37.089-109.385 0 0-9.414 86.055-66.459 99.414-7.801 1.567-10.349.226-6.401-4.713 19.034-25.719 30.387-59.07 24.474-109.572 0 0-12.048 90.371-43.868 98.276-18.546 4.849-28.283 3.159-25.605-3.767 15.055-30.283 25.608-64.881 25.041-110.136 0 0-22.057 92.58-43.678 101.477-21.274 8.755-23.879-4.518-23.879-4.518-.084-23.57 7.406-62.322 16.913-105.117 0 0-25.856 50.456-32.885 102.168 0 0-8.408 13.805-21.461 8.034-7.695-32.619-7.837-70.576 7.155-119.236 0 0-29.118 41.671-25.101 116.477 0 0-9.611 9.209-22.968-8.158-13.357-17.366-9.037-86.163 3.012-108.316-18.713 26.04-21.773 68.767-18.45 118.297-20.755-9.027-34.712-42.483-35.96-121.623 0 0-10.732 63.07 0 119.739 0 0-1.066 8.599-15.25 6.842-14.183-1.756-33.637-69.032-28.367-114.216 0 0-13.808 53.719 2.511 117.228 0 0-.501 8.221-14.058 6.151-13.555-2.071-38.408-71.166-34.642-115.596 0 0-7.53 64.31 16.065 122.147 0 0-1.379 13.422-22.843 8.142-21.462-5.28-38.031-84.728-33.888-115.228 0 0-14.686 61.563 12.426 117.101 0 0 4.895 8.536-5.146 14.183s-48.323-46.943-48.323-87.61c0 0-6.684 56.952 30.688 94.325 0 0 2.071 11.734-20.019 13.618-22.089 1.883-44.432-51.462-47.444-88.11 0 0-13.053 44.432 23.345 99.657 0 0 .251 9.287-10.292 9.287-10.542 0-44.179-55.415-52.904-87.733 0 0-1.129 47.821 39.724 96.204 0 0-4.647 10.31-23.345-.751-28.382-16.792-42.807-46.25-47.626-57.921-1.286-3.116-1.888-4.961-1.888-4.961s5.647 58.174 50.079 77.755c0 0 9.413 5.71 3.326 11.797-5.148 5.149-15.314 4.086-17.625 3.833-19.558-2.144-54.341-35.928-56.68-38.223 3.435 7.988 9.322 17.743 17.526 28.278 11.322 14.539 27.76 29.88 48.226 33.087l21.962 3.732c101.35-79.565 192.866-123.247 244.673-126.559 125.963-9.748 271.25 36.473 396.573 145.925Z" fill="#fff"/><path d="M185.847 223.068 76.231 299.327l109.616 72.849c133.168 97.278 313.955 97.278 447.123 0l110.192-73.492-110.192-75.616c-133.168-97.278-313.955-97.278-447.123 0Z" stroke="#fff" stroke-width="10"/></svg>