<svg viewBox="0 0 882 446" fill="none" xmlns="http://www.w3.org/2000/svg"><g clip-path="url(#a)" stroke="#fff" stroke-linecap="round" stroke-linejoin="round"><g clip-path="url(#b)"><path d="M872.584 247.588c-54.931-70.816-121.075-134.009-199.268-177.827-78.193-43.817-168.926-67.57-258.134-58.767-80.258 7.918-156.238 41.506-223.71 85.619-67.423 44.161-127.321 98.749-182.056 154.27 29.015-.442 56.85 12.049 80.7 28.573 23.852 16.523 44.605 37.031 67.128 55.325C239.765 402.056 346.53 438.89 452.95 436.775c106.421-2.114 211.661-43.128 291.428-113.6 19.13-16.917 36.932-35.507 57.981-49.965 21.048-14.458 46.276-24.736 70.225-25.523v-.099Z" fill="#711E40" stroke-width="17.212"/><path d="m728.031 335.76-32.44-71.592m0 0 7.831-76.066m-7.831 76.066-34.677-6.712M606.5 403.599c3.804-44.806-2.823-60.051-34.962-98.782m-270.54 103.999v-38.503a14 14 0 0 1 5.6-11.2l36.112-27.084m136.031 103.29 16.131-29.18a14.001 14.001 0 0 0-.815-14.847l-16.958-24.024m7.339-61.284-21.225 21.756a14 14 0 0 0-1.416 17.85l15.302 21.678m0 0-63.144-13.052m-183.914 28.598-23.254-39.166a13.997 13.997 0 0 1 .6-15.221l16.783-23.776m-7.339-61.284 21.224 21.756a14 14 0 0 1 1.417 17.85l-15.302 21.678m0 0 63.143-13.052" stroke-width="17"/></g><path d="M872.584 247.588c-54.931-70.816-121.075-134.009-199.268-177.827-78.193-43.817-168.926-67.57-258.134-58.767-80.258 7.918-156.238 41.506-223.71 85.619-67.423 44.161-127.321 98.749-182.056 154.27 29.015-.442 56.85 12.049 80.7 28.573 23.852 16.523 44.605 37.031 67.128 55.325C239.765 402.056 346.53 438.89 452.95 436.775c106.421-2.114 211.661-43.128 291.428-113.6 19.13-16.917 36.932-35.507 57.981-49.965 21.048-14.458 46.276-24.736 70.225-25.523v-.099Z" stroke-width="17.212"/></g><defs><clipPath id="a"><path fill="#fff" transform="translate(.81 .568)" d="M0 0h880.381v444.862H0z"/></clipPath><clipPath id="b"><path fill="#fff" transform="translate(-12 -8)" d="M0 0h861v462H0z"/></clipPath></defs></svg>