<svg viewBox="0 0 882 446" fill="none" xmlns="http://www.w3.org/2000/svg"><g clip-path="url(#a)"><path d="M872.584 247.588c-54.931-70.816-121.075-134.009-199.268-177.827-78.193-43.817-168.926-67.57-258.134-58.767-80.258 7.918-156.238 41.506-223.71 85.619-67.423 44.161-127.321 98.749-182.056 154.27 29.015-.442 56.85 12.049 80.7 28.573 23.852 16.523 44.605 37.031 67.128 55.325C239.765 402.056 346.53 438.89 452.95 436.775c106.421-2.114 211.661-43.128 291.428-113.6 19.13-16.917 36.932-35.507 57.981-49.965 21.048-14.458 46.276-24.736 70.225-25.523v-.099Z" stroke="#fff" stroke-width="17.212" stroke-linecap="round" stroke-linejoin="round"/><path d="M90.117 279.457c-23.852-16.524-51.736-29.015-80.701-28.573 29.949-30.342 61.374-60.439 94.765-88.667C87.411 198.805 82.74 241 91.297 280.342" fill="#fff"/><path d="M90.117 279.457c-23.852-16.524-51.736-29.015-80.701-28.573 29.949-30.342 61.374-60.439 94.765-88.667C87.411 198.805 82.74 241 91.297 280.342" stroke="#fff" stroke-width="7.377" stroke-linecap="round" stroke-linejoin="round"/></g><defs><clipPath id="a"><path fill="#fff" transform="translate(.81 .568)" d="M0 0h880.381v444.862H0z"/></clipPath></defs></svg>