<svg width="856" height="446" fill="none" xmlns="http://www.w3.org/2000/svg"><path fill-rule="evenodd" clip-rule="evenodd" d="M409.494 408c65.998 0 119.5-53.502 119.5-119.5 0-65.998-53.502-119.5-119.5-119.5-65.998 0-119.5 53.502-119.5 119.5 0 65.998 53.502 119.5 119.5 119.5Zm0-59.895c-32.919 0-59.605-26.686-59.605-59.605s26.686-59.605 59.605-59.605c11.779 0 22.76 3.417 32.006 9.314C446.08 224.98 461 223.5 468 230.5s8.991 21.981-7 27.985c5.148 8.815 8.098 19.07 8.098 30.015 0 32.919-26.686 59.605-59.604 59.605ZM331.5 250.5c.323.212.343.916 0 2.5l-1.5 5-2 8.5-1.5 10-.5 10.5 1 12 2 10 4 11c1.989 4.579 3.111 7.149 6 11.5 2.582 4.137 4.174 6.618 7 10l8.5 9.5c-3.171-1.865-4.917-2.915-7.5-5-2.001-1.212-3.103-1.978-5-4-1.364-1.198-2.065-1.954-3.134-3.106l-.002-.003-.364-.391c-1.725-1.83-2.815-3.219-4.475-5.332l-.238-.303c-.093-.12-.189-.241-.287-.365-2.218-2.738-3.265-4.393-5-7.5l-3.5-7c-1.215-2.594-1.879-4.056-2.5-7-.732-1.679-1.029-2.838-1.5-5-.842-2.802-1.126-4.466-1.5-7.5-.423-2.456-.509-4.018-.5-7-.197-2.197-.188-3.517 0-6 .044-3.865.093-6.014 1-10l1.5-7 2.5-7 2.5-5 .019-.039c.659-1.396 1.17-2.478 2.481-3.961 1.17-1.467 1.753-2.046 2.5-2Zm163.522 27.48c.017-2.436.029-4.298.478-3.98.511-.557 1.154.756 2.114 2.714l.386.786c1.072 3.769 1.653 5.905 2 10 .561 4.043.54 6.245.507 9.842l-.007.658c-.441 4.975-.913 7.284-2 11-1.526 5.829-2.578 8.294-4.5 12.5-2.583 4.816-4.26 7.318-7.5 11.5-3.829 4.674-6.208 7.045-11 10.5-5.662 4.406-9.322 5.856-15.681 8.374l-.319.126c6.219-5.084 9.487-8.053 15-13.5l4-5 4.5-6.5 4.5-8.5 4-10.5 2-10 1-9.5.5-8.5c.013-.694.018-1.377.022-2.02Z" fill="#fff"/><path d="M457.161 261.179c-10.292 0-18.649-8.357-18.649-18.649 0-10.292 8.357-18.649 18.649-18.649 10.292 0 18.65 8.357 18.65 18.649 0 10.292-8.358 18.649-18.65 18.649Z" stroke="#fff" stroke-width="5.023"/></svg>