<svg width="605" height="155" fill="none" xmlns="http://www.w3.org/2000/svg"><path d="M4.838 81.863c0 29.153 9.814 49.643 39.257 49.643 29.443 0 39.257-20.49 39.257-49.643 0-29.29-9.953-49.642-39.257-49.642-29.305 0-39.257 20.352-39.257 49.642Zm59.715 0c0 14.852-2.627 33.416-20.458 33.416-17.832 0-20.458-18.564-20.458-33.416 0-14.989 2.35-33.553 20.458-33.553 17.97 0 20.458 18.564 20.458 33.553Zm50.964-42.216c0-5.089-4.7-6.464-9.261-6.464-4.562 0-9.123 1.375-9.123 6.464v85.121c0 5.088 4.561 6.463 9.123 6.463 4.561 0 9.261-1.375 9.261-6.463V85.851c9.261-.687 16.173 1.65 19.49 10.864 3.318 9.351 4.976 19.527 9.4 28.74 1.797 3.713 3.87 5.501 9.952 5.501 7.326 0 11.335-1.925 8.156-8.251-3.318-6.738-6.359-20.627-10.92-31.078-2.765-6.188-7.326-13.064-14.238-15.127 5.253-2.475 8.57-7.7 11.473-12.514 5.391-9.213 8.985-18.014 12.302-22.827 3.594-5.363.139-7.976-7.049-7.976-7.188 0-8.847 1.925-12.303 7.014-2.902 4.537-7.049 14.851-10.505 20.902-3.456 6.05-8.847 9.076-15.758 9.076V39.647Zm120.592 0c1.935-5.226-3.18-6.326-7.188-6.464-7.326 0-9.262 1.513-11.197 6.464L204.04 74.85l-16.864-35.203c-2.212-4.951-4.285-6.739-12.026-6.464-4.838.275-8.985 2.613-6.497 7.564l27.231 55.555-5.391 13.614c-1.659 4.401-2.764 4.951-5.391 5.363-3.456.55-5.391 2.338-5.253 7.014.139 7.288 4.424 8.663 9.815 8.663 8.985 0 14.237-7.976 17.14-15.677l29.305-75.632Zm40.028 62.018c4.285 0 5.39-3.85 5.39-7.563 0-3.85-1.244-7.7-5.39-7.7h-28.061c-4.147 0-5.253 3.85-5.253 7.7 0 3.713 1.106 7.563 5.253 7.563h28.061Zm15.013-19.802c0 29.153 9.814 49.643 39.256 49.643 29.443 0 39.257-20.49 39.257-49.643 0-29.29-9.952-49.642-39.257-49.642-29.304 0-39.256 20.352-39.256 49.642Zm59.714 0c0 14.852-2.626 33.416-20.458 33.416-17.831 0-20.457-18.564-20.457-33.416 0-14.989 2.349-33.553 20.457-33.553 17.97 0 20.458 18.564 20.458 33.553Zm50.965-42.216c0-5.089-4.7-6.464-9.262-6.464-4.561 0-9.123 1.375-9.123 6.464v85.121c0 5.088 4.562 6.463 9.123 6.463 4.562 0 9.262-1.375 9.262-6.463V85.851c9.261-.687 16.172 1.65 19.49 10.864 3.317 9.351 4.976 19.527 9.399 28.74 1.797 3.713 3.871 5.501 9.953 5.501 7.326 0 11.335-1.925 8.155-8.251-3.317-6.738-6.358-20.627-10.92-31.078-2.764-6.188-7.326-13.064-14.237-15.127 5.252-2.475 8.57-7.7 11.473-12.514 5.391-9.213 8.985-18.014 12.302-22.827 3.594-5.363.138-7.976-7.05-7.976-7.187 0-8.846 1.925-12.302 7.014-2.903 4.537-7.05 14.851-10.505 20.902-3.456 6.05-8.847 9.076-15.758 9.076V39.647Zm120.591 0c1.935-5.226-3.179-6.326-7.188-6.464-7.326 0-9.261 1.513-11.196 6.464L490.351 74.85l-16.864-35.203c-2.211-4.951-4.285-6.739-12.026-6.464-4.838.275-8.985 2.613-6.496 7.564l27.231 55.555-5.391 13.614c-1.659 4.401-2.765 4.951-5.391 5.363-3.456.55-5.391 2.338-5.253 7.014.138 7.288 4.423 8.663 9.814 8.663 8.985 0 14.238-7.976 17.141-15.677l29.304-75.632Zm54.733-30.381c-13.408 0-24.328 11.138-24.328 24.89 0 13.751 10.92 24.959 24.328 24.959 13.477 0 24.328-11.208 24.328-24.96 0-13.75-10.851-24.89-24.328-24.89Zm0 6.394c10.022 0 18.108 8.25 18.108 18.496 0 10.245-8.086 18.564-18.108 18.564s-18.108-8.32-18.108-18.564c0-10.245 8.086-18.496 18.108-18.496Zm-6.082 32.453c1.866 0 3.317-.618 3.317-2.475v-8.182h1.797c2.35 0 3.11 1.788 3.663 4.194.415 1.65.899 3.232 1.59 4.4 1.106 1.857 2.765 1.788 4.7 1.65 1.451-.137 3.87-1.1 2.626-3.093-2.004-3.094-2.004-7.082-4.976-9.214 2.626-.894 4.561-3.438 4.561-6.6 0-5.707-4.215-9.008-9.675-9.008h-5.737c-3.179 0-5.322 1.65-5.322 4.882V45.57c0 2.132 1.659 2.613 3.456 2.544Zm3.317-16.57v-4.744c0-.62.208-.825.761-.825h3.041c1.935 0 3.11.756 3.11 2.75s-1.382 2.819-3.249 2.819h-3.663Z" fill="#fff"/></svg>